<svg height="435" width="421" xmlns="http://www.w3.org/2000/svg" xmlns:xlink="http://www.w3.org/1999/xlink"><clipPath id="a"><path d="m265.012 288.106h136v100.725h-136z"/></clipPath><clipPath id="b"><path d="m109.012 167.106h136v100.725h-136z"/></clipPath><clipPath id="c"><path d="m265.012 46.472h136v100.724h-136z"/></clipPath><clipPath id="d"><path d="m109.012 46.472h136v100.724h-136z"/></clipPath><clipPath id="e"><path d="m265.012 167.106h136v100.725h-136z"/></clipPath><clipPath id="f"><path d="m109.012 288.106h136v100.725h-136z"/></clipPath><marker id="g" markerHeight="10" markerWidth="10" orient="auto" overflow="visible" stroke-miterlimit="10" viewBox="-1 -5 10 10"><path d="m8 0h-8m4-4 4 4-4 4" fill="none" stroke="#616161"/></marker><marker id="h" markerHeight="8" markerWidth="8" orient="auto" overflow="visible" stroke-miterlimit="10" viewBox="-1 -4 8 8"><circle cx="3" fill="none" r="3" stroke="#616161"/></marker><marker id="i" markerHeight="8" markerWidth="8" orient="auto" overflow="visible" stroke-miterlimit="10" viewBox="-7 -4 8 8"><circle cx="-3" fill="none" r="3" stroke="#616161"/></marker><g fill="none"><path d="m88.69-.004h332.322v409.2h-332.322z" fill="#e1f6fe"/><path d="m88.69-.004h332.322v409.2h-332.322z"/><text fill="#757575" transform="translate(98.69 14.996)"><tspan font-family="Roboto" font-size="10" font-weight="400" x="0" y="10">Google Cloud Platform</tspan></text><path d="m265.012 288.106h136v100.725h-136z" fill="#fff"/><path clip-path="url(#a)" d="m265.012 288.106h136v100.725h-136z" stroke="#dfdfdf" stroke-linecap="round" stroke-linejoin="round" stroke-width="2"/><text fill="#212121" transform="translate(316.012 322.469)"><tspan font-family="Roboto" font-size="12" font-weight="400" x="0" y="13">Other Cloud</tspan> <tspan font-family="Roboto" font-size="12" font-weight="400" x="0" y="29">Services</tspan></text><path d="m308.079 337.183-5.755-10.007c-.46-.798-1.297-1.285-2.157-1.285h-11.508c-.923 0-1.728.54-2.158 1.285l-5.754 9.986a2.51 2.51 0 0 0 -.001 2.502l5.754 10.051c.461.8 1.298 1.332 2.158 1.332h11.508c.922 0 1.727-.581 2.158-1.326l5.754-10.006a2.566 2.566 0 0 0 0-2.532" fill="#4285f4"/><path d="m297.838 332.944-5.836.94-1.145 3.828-1.767-1.537 1.854 7.795 7.077 7.077h2.145c.922 0 1.727-.581 2.158-1.326l4.47-7.773z" fill="#000" fill-opacity=".07"/><path d="m296.11 338.486a1.734 1.734 0 1 1 -3.469 0 1.734 1.734 0 0 1 3.468 0" fill="#fff"/><path d="m300.798 338.038-1.3-2.261h-2.65l1.553 2.698-.418.728-1.579 2.743-.487.846-.853 1.465h2.152a.875.875 0 0 0 .752-.437l2.83-4.907a.875.875 0 0 0 0-.864" fill="#fff"/><path d="m292.411 341.946-1.996-3.47-1.325-2.301-1.072 1.863a.875.875 0 0 0 0 .864l2.819 4.92c.155.27.442.436.752.438h2.59l1.335-2.314z" fill="#fff"/><path d="m299.057 335.005-1.076-1.876a.875.875 0 0 0 -.752-.438h-5.64a.875.875 0 0 0 -.752.438l-1.308 2.285 1.328 2.298 1.552-2.698h6.648z" fill="#fff"/><path d="m109.012 167.106h136v100.725h-136z" fill="#fff"/><path clip-path="url(#b)" d="m109.012 167.106h136v100.725h-136z" stroke="#dfdfdf" stroke-linecap="round" stroke-linejoin="round" stroke-width="2"/><path d="m125.012 221.106h104v1h-104z" fill="#dfdfdf"/><text fill="#757575" transform="translate(125.012 230.106)"><tspan font-family="Roboto" font-size="10" font-weight="400" x="0" y="10">for device connection</tspan> <tspan font-family="Roboto" font-size="10" font-weight="400" x="0" y="23">and management</tspan></text><text fill="#212121" transform="translate(162.012 179.106)"><tspan font-family="Roboto" font-size="12" font-weight="400" x="0" y="13">Cloud</tspan> <tspan font-family="Roboto" font-size="12" font-weight="400" x="0" y="29">IoT Core</tspan></text><path d="m152.678 193.398-5.754-10.006c-.46-.799-1.297-1.286-2.157-1.286h-11.508c-.923 0-1.728.54-2.158 1.286l-5.754 9.986a2.51 2.51 0 0 0 -.001 2.501l5.754 10.052c.461.799 1.298 1.332 2.158 1.332h11.508c.922 0 1.727-.582 2.158-1.326l5.754-10.007a2.566 2.566 0 0 0 0-2.532" fill="#4285f4"/><path d="m144.45 190.882-1.529.07-1.567-1.566-7.432 2.786-.351 2.102 2.154 2.154-.628.969-.349.81.056.714 8.342 8.342h1.62c.922 0 1.727-.582 2.158-1.326l4.593-7.988z" fill="#000" fill-opacity=".07"/><path d="m138.995 200.257a.628.628 0 1 1 0-1.257.628.628 0 0 1 0 1.257zm.337-1.873v-3.427h-.657v3.427a1.285 1.285 0 1 0 .657 0z" fill="#fff"/><path d="m142.293 198.654a.628.628 0 1 1 0-1.253.628.628 0 0 1 0 1.25zm.328-1.873v-1.817h-.657v1.817a1.285 1.285 0 1 0 .657 0z" fill="#fff"/><path d="m135.725 198.654a.628.628 0 1 1 0-1.253.628.628 0 0 1 0 1.25zm.329-1.853v-1.84h-.657v1.82a1.285 1.285 0 1 0 1.614 1.242 1.248 1.248 0 0 0 -.957-1.222z" fill="#fff"/><path d="m139.332 192.202v2.757h-.657v-2.757a.71.71 0 1 1 .657 0zm3.445-2.008a2.38 2.38 0 0 0 -.76.125 3.252 3.252 0 0 0 -5.898.042 2.383 2.383 0 1 0 -.876 4.598h.152v-1.76a.71.71 0 1 1 .656 0v1.763h5.913v-1.752a.71.71 0 1 1 .657 0v1.752h.156a2.383 2.383 0 1 0 0-4.766z" fill="#fff"/><path d="m265.012 46.472h136v100.725h-136z" fill="#fff"/><path clip-path="url(#c)" d="m265.012 46.472h136v100.725h-136z" stroke="#dfdfdf" stroke-linecap="round" stroke-linejoin="round" stroke-width="2"/><path d="m281.012 100.472h104v1h-104z" fill="#dfdfdf"/><text fill="#757575" transform="translate(281.012 109.472)"><tspan font-family="Roboto" font-size="10" font-weight="400" x="0" y="10">for ingest connection</tspan> <tspan font-family="Roboto" font-size="10" font-weight="400" x="0" y="23">and management</tspan></text><text fill="#212121" transform="translate(318.012 58.472)"><tspan font-family="Roboto" font-size="12" font-weight="400" x="0" y="13">Cloud</tspan> <tspan font-family="Roboto" font-size="12" font-weight="400" x="0" y="29">Pub/Sub</tspan></text><path d="m109.012 46.472h136v100.725h-136z" fill="#fff"/><path clip-path="url(#d)" d="m109.012 46.472h136v100.725h-136z" stroke="#dfdfdf" stroke-linecap="round" stroke-linejoin="round" stroke-width="2"/><path d="m125.012 100.472h104v1h-104z" fill="#dfdfdf"/><text fill="#757575" transform="translate(125.012 109.472)"><tspan font-family="Roboto" font-size="10" font-weight="400" x="0" y="10">for streaming and</tspan> <tspan font-family="Roboto" font-size="10" font-weight="400" x="0" y="23">batch analytics</tspan></text><text fill="#212121" transform="translate(162.012 58.472)"><tspan font-family="Roboto" font-size="12" font-weight="400" x="0" y="13">Cloud</tspan> <tspan font-family="Roboto" font-size="12" font-weight="400" x="0" y="29">Dataflow</tspan></text><path d="m308.529 72.882-5.754-10.006c-.461-.799-1.298-1.286-2.158-1.286h-11.507c-.922 0-1.727.54-2.158 1.285l-5.754 9.987a2.51 2.51 0 0 0 0 2.501l5.753 10.052c.462.799 1.298 1.332 2.158 1.332h11.508c.923 0 1.728-.582 2.158-1.326l5.754-10.007a2.566 2.566 0 0 0 0-2.532" fill="#4285f4"/><path d="m300.38 70.612-1.282.266-3.195-3.194-1.022 1.912-.554 2.21.938.94-1.802.367-2.471-2.47-1.678 1.613 3.09 3.088-3.275 2.604 8.8 8.799h2.687c.923 0 1.728-.582 2.158-1.326l4.532-7.882z" fill="#000" fill-opacity=".07"/><g fill="#fff"><path d="m298.988 70.442a1.164 1.164 0 1 1 1.166 2.016 1.164 1.164 0 0 1 -1.166-2.016"/><path d="m289.573 72.458a1.165 1.165 0 1 1 1.165-2.017 1.165 1.165 0 0 1 -1.165 2.017"/><path d="m296.027 79.604a1.164 1.164 0 1 1 -2.328 0 1.164 1.164 0 0 1 2.328 0"/><path d="m294.863 71.748c.185 0 .364.023.537.063v-3.08h-1.075v3.08c.173-.04.353-.063.538-.063"/><path d="m297.175 74.882a2.41 2.41 0 0 1 -.54.93l2.666 1.54.538-.931z"/><path d="m292.55 74.882-2.663 1.539.537.93 2.667-1.54a2.409 2.409 0 0 1 -.54-.929"/><path d="m296.744 74.168a1.881 1.881 0 1 1 -3.761 0 1.881 1.881 0 0 1 3.761 0"/><path d="m289.416 75.605a1.48 1.48 0 1 1 1.478 2.563 1.48 1.48 0 0 1 -1.478-2.563"/><path d="m298.831 78.166a1.479 1.479 0 1 1 1.48-2.558 1.479 1.479 0 0 1 -1.48 2.558"/><path d="m296.341 68.732a1.479 1.479 0 1 1 -2.957 0 1.479 1.479 0 0 1 2.957 0"/></g><path d="m152.61 73.054-5.754-10.006c-.462-.8-1.298-1.286-2.158-1.286h-11.508c-.922 0-1.728.54-2.158 1.285l-5.754 9.986a2.51 2.51 0 0 0 -.001 2.502l5.754 10.051c.461.8 1.298 1.332 2.158 1.332h11.508c.922 0 1.727-.581 2.158-1.326l5.754-10.006a2.566 2.566 0 0 0 0-2.532" fill="#4285f4"/><path d="m142.524 68.138-3.553.833-3.608-.833 1.98 1.98-3.201 2.953.847.846-.787 1.01.987.987-1.047 1.212 3.017 3.016-1.796.455 6.32 6.32h3.014c.923 0 1.728-.58 2.158-1.325l4.791-8.332z" fill="#000" fill-opacity=".07"/><path d="m143.134 73.59a.782.782 0 1 1 0 1.564.782.782 0 0 1 0-1.564" fill="#fff"/><path d="m134.753 73.59a.782.782 0 1 1 0 1.564.782.782 0 0 1 0-1.564" fill="#fff"/><path d="m138.943 72.417a.782.782 0 1 1 0 1.565.782.782 0 0 1 0-1.565" fill="#fff"/><path d="m138.943 74.763a.782.782 0 1 1 0 1.565.782.782 0 0 1 0-1.565" fill="#fff"/><path d="m140.122 69.525 2.402-1.387-1.163-.671h-.031l-2.387 1.377-2.386-1.377h-.032l-1.162.67 2.401 1.388-3.622 2.08v1.465h1.236v-.785l2.971-1.737v1.276h1.189v-1.276l2.965 1.737v.785h1.242v-1.466z" fill="#fff"/><path d="m142.504 76.446-2.966 1.736v-1.26h-1.189v1.26l-2.971-1.736v-.786h-1.236v1.466l3.626 2.082-2.405 1.389 1.162.671h.032l2.386-1.378 2.386 1.378h.032l1.163-.671-2.405-1.389 3.626-2.082v-1.466h-1.242z" fill="#fff"/><path d="m265.012 167.106h136v100.725h-136z" fill="#fff"/><path clip-path="url(#e)" d="m265.012 167.106h136v100.725h-136z" stroke="#dfdfdf" stroke-linecap="round" stroke-linejoin="round" stroke-width="2"/><path d="m281.012 221.106h104v1h-104z" fill="#dfdfdf"/><text fill="#757575" transform="translate(281.012 230.106)"><tspan font-family="Roboto" font-size="10" font-weight="400" x="0" y="10">for data warehouse</tspan> <tspan font-family="Roboto" font-size="10" font-weight="400" x="0" y="23">and fast querying</tspan></text><text fill="#212121" transform="translate(318.012 186.606)"><tspan font-family="Roboto" font-size="12" font-weight="400" x="0" y="13">BigQuery</tspan></text><path d="m308.529 193.688-5.754-10.006c-.461-.799-1.298-1.286-2.158-1.286h-11.507c-.922 0-1.727.541-2.158 1.286l-5.754 9.986a2.51 2.51 0 0 0 0 2.501l5.753 10.052c.462.799 1.298 1.332 2.158 1.332h11.508c.923 0 1.728-.581 2.158-1.326l5.754-10.007a2.566 2.566 0 0 0 0-2.532" fill="#4285f4"/><path d="m302.775 206.227 3.835-6.67-8.11-8.11-3.638-.973-3.266 1.214-1.261 3.287 1.014 3.659 8.919 8.919h.348c.923 0 1.728-.581 2.159-1.326" fill="#000" fill-opacity=".07"/><path d="m294.862 198.824a3.85 3.85 0 1 1 0-7.7 3.85 3.85 0 0 1 0 7.7m0-8.924a5.074 5.074 0 1 0 0 10.147 5.074 5.074 0 0 0 0-10.147" fill="#fff"/><path d="m292.454 194.778v1.577c.233.402.563.737.959.98v-2.557z" fill="#fff"/><path d="m294.354 193.45v4.245c.163.03.33.049.501.049.157 0 .308-.017.458-.042v-4.252z" fill="#fff"/><path d="m296.343 195.434v1.873c.4-.256.732-.609.958-1.029v-.844z" fill="#fff"/><path d="m298.514 198.1-.526.526a.237.237 0 0 0 0 .336l1.994 1.993a.238.238 0 0 0 .336 0l.526-.525a.238.238 0 0 0 0-.336l-1.994-1.994a.238.238 0 0 0 -.336 0" fill="#fff"/><path d="m109.012 288.106h136v100.725h-136z" fill="#fff"/><path clip-path="url(#f)" d="m109.012 288.106h136v100.725h-136z" stroke="#dfdfdf" stroke-linecap="round" stroke-linejoin="round" stroke-width="2"/><path d="m125.012 342.106h104v1h-104z" fill="#dfdfdf"/><text fill="#757575" transform="translate(125.012 351.106)"><tspan font-family="Roboto" font-size="10" font-weight="400" x="0" y="10">for train, deploy, and</tspan> <tspan font-family="Roboto" font-size="10" font-weight="400" x="0" y="23">run ML model</tspan></text><text fill="#212121" transform="translate(162.012 300.106)"><tspan font-family="Roboto" font-size="12" font-weight="400" x="0" y="13">Cloud</tspan> <tspan font-family="Roboto" font-size="12" font-weight="400" x="0" y="29">ML Engine</tspan></text><path d="m152.61 314.288-5.754-10.006c-.462-.799-1.298-1.286-2.158-1.286h-11.508c-.922 0-1.728.541-2.158 1.286l-5.754 9.986a2.51 2.51 0 0 0 -.001 2.501l5.754 10.052c.461.799 1.298 1.332 2.158 1.332h11.508c.922 0 1.727-.581 2.158-1.326l5.754-10.007a2.566 2.566 0 0 0 0-2.532" fill="#4285f4"/><path d="m142.484 309.23-2.656 1.323-1.322-1.322-4.625 2.625 1.016 1.015-2.538 3.797 1.545 1.545 1.5 3.705 6.234 6.235h3.06c.922 0 1.727-.581 2.157-1.326l4.828-8.396z" fill="#000" fill-opacity=".07"/><path d="m142.428 317.762.64-1.094h2.46l.634-1.093-1.649-2.844h-2.567l-.742-1.313h-.73v-.875h1.24l.743 1.313h1.549l-1.522-2.625h-3.103v3.719h1.317l.51.875h-1.827v1.75h1.662l.758-1.313h2.04l.505.875h-2.04l-.758 1.313h-2.167v3.28h2.733l-.505.876h-2.228v1.312h3.103l2.537-4.375h-1.452l-.64 1.094h-2.454v-.875z" fill="#fff"/><path d="m135.46 317.762-.64-1.094h-2.46l-.635-1.093 1.649-2.844h2.567l.742-1.313h.73v-.875h-1.24l-.743 1.313h-1.549l1.523-2.625h3.102v3.719h-1.317l-.51.875h1.827v1.75h-1.662l-.758-1.313h-2.039l-.505.875h2.04l.758 1.313h2.166v3.28h-2.733l.506.876h2.227v1.312h-3.102l-2.538-4.375h1.452l.64 1.094h2.454v-.875z" fill="#fff"/><path d="m88.17 191.214h-41.344" marker-end="url(#g)" stroke="#616161" stroke-dasharray="1 4" stroke-linecap="round" stroke-linejoin="round"/><text fill="#616161" transform="translate(49.382 175.834)"><tspan font-family="Roboto" font-size="10" font-weight="400" x="0" y="10">Control</tspan></text><path d="m38.33 221.16h40.782" marker-end="url(#g)" stroke="#616161" stroke-dasharray="1 4" stroke-linecap="round" stroke-linejoin="round"/><text fill="#616161" transform="translate(46.535 223.103)"><tspan font-family="Roboto" font-size="10" font-weight="400" x="6.117" y="10">Data</tspan></text><path d="m28.7 102.509h7.932v148.1h.838v55.1h-11.137" style="stroke:#616161;stroke-linecap:round;stroke-linejoin:round;stroke-dasharray:1 4;marker-end:url(#h);marker-start:url(#i)"/><text fill="#666" transform="translate(-.012 79)"><tspan font-family="Roboto" font-size="12" font-weight="400" x="0" y="13">Sensors</tspan></text><path d="m7.323 127.839 2.902 1.813 2.829-1.813-2.83-1.74zm3.772-2.249 2.829 1.741.145-.072h.072l-.362-3.337-.073.073h-.072zm2.829 2.83-2.829 1.74 3.41 2.103h.072l.072.073-.362-3.772-.146-.072h-.072z" fill="#616161"/><path d="m27.27 128.782c-.073-.073-.073-.073 0 0-.073-.073-.145-.073-.145-.073l-7.979 5.295h-4.28l-.072-.508-.072-.072-.145-.073-4.425-2.683-4.207 2.538-.072.073-.073.072-.072.653h-3.772c-.072 0-.072.073-.072.073v7.833c0 .073.072.073.072.073h2.539v5.44s0 .072.072.072h.073l2.538-1.668 2.249 1.596h.145l.073-.073v-5.005h7.76v5.005s0 .073.073.073h.073l2.683-1.814 2.539 1.814h.072l.073-.073v-5.295h2.176c.072 0 .072-.072.072-.072v-3.917l-2.538-3.264 5.004-4.352s.073-.073 0-.073zm-12.33 10.735v-2.757h2.756v2.757zm-5.295-2.757h2.755v2.757h-2.755zm-2.54 0v2.757h-2.755v-2.757zm-.435-9.574 2.684-1.596-2.32-1.45h-.074l-.073-.073-.435 3.264.145-.072zm-.58 4.932 3.264-1.958-2.828-1.668-.073-.073h-.072l-.436 3.772h.073zm1.016-8.921 3.046 1.886 3.337-2.031.072-.073.073-.072-.073-.726c0-.072-.072-.072-.072-.072h-6.383c-.073 0-.073 0-.073.072l-.072.87.072.073zm18.786 26.183c-1.45 1.234-3.337 1.161-5.658-.072a.472.472 0 0 0 -.653.145c-.58.653-1.523 1.016-2.61 1.088-1.234 0-2.467-.362-3.192-1.088a.558.558 0 0 0 -.725-.072c-1.959 1.45-4.497 1.16-5.658.072-.218-.217-.508-.217-.725 0-2.902 2.467-5.658.145-5.73 0a.517.517 0 0 0 -.798.073.517.517 0 0 0 .072.798s3.264 2.901 6.818.29c1.451 1.088 4.062 1.378 6.31 0 .871.725 2.177 1.088 3.482 1.088h.145c1.233 0 2.249-.435 3.047-1.16 2.538 1.232 4.714 1.16 6.455-.218.218-.218.29-.508.073-.798-.073-.29-.436-.29-.653-.145z" fill="#616161"/><path d="m26.254 174.26-3.554-4.57h-3.482v-3.482l1.161.87h.073l.072-.072v-2.538l-6.673-5.658h-.145l-6.673 5.658v2.466s0 .072.073.072h.072l1.16-.87v3.481h-3.48l-3.554 4.57v.072l.073.073h2.176v9.792c0 .072.072.072.072.072h7.834c.072 0 .072-.072.072-.072v-4.715h4.497v4.715c0 .072.073.072.073.072h7.833c.073 0 .073-.072.073-.072v-9.792h2.176s.072 0 .072-.073c0-.072.073 0 0 0zm-18.06.29v2.466h-2.466v-2.466zm-2.466 4.787h2.466v2.466h-2.466zm4.497-2.321v-2.466h2.466v2.466zm.58-10.155a2.941 2.941 0 0 1 2.974-2.974 2.941 2.941 0 0 1 2.974 2.974 2.941 2.941 0 0 1 -2.974 2.974 2.941 2.941 0 0 1 -2.974-2.974zm4.062 7.689h2.466v2.466h-2.466zm4.424 2.466v-2.466h2.466v2.466zm2.539 2.32v2.467h-2.466v-2.466z" fill="#616161"/><path d="m15.955 166.861c0-.217-.145-.363-.363-.363h-1.45v-1.378c0-.217-.146-.362-.363-.362-.218 0-.363.145-.363.362v1.741c0 .218.145.363.363.363h1.813c.218 0 .363-.145.363-.363z" fill="#616161"/><path d="m25.384 205.593c-.363-.435-.943-.652-1.306-.652h-3.191v-6.31c0-.29-.29-.581-.58-.581s-.58.29-.58.58v6.31h-5.877l-2.32-6.745c0-.072-.073-.072-.073-.072h-7.397c-.073 0-.073.072-.073.072v9.43c-2.103.87-3.554 2.973-3.554 5.367 0 3.191 2.611 5.875 5.875 5.875a5.85 5.85 0 0 0 5.875-5.875v-.363h7.18c-1.16.435-1.958 1.523-1.958 2.756a2.941 2.941 0 0 0 2.974 2.974 2.941 2.941 0 0 0 2.974-2.974c0-1.305-.798-2.32-1.958-2.756h2.901c.073 0 .073 0 .073-.073 0-.072 1.015-4.86 1.305-5.875 0-.362-.072-.725-.29-1.088zm-5.077 11.678c-1.016 0-1.886-.87-1.886-1.886 0-1.015.87-1.886 1.886-1.886 1.015 0 1.886.87 1.886 1.886a1.873 1.873 0 0 1 -1.886 1.886zm-11.678-4.28a2.415 2.415 0 0 1 -2.394 2.394 2.415 2.415 0 0 1 -2.393-2.393c0-.145 0-.363.072-.508 0-.073.073-.218.073-.29 0-.073.073-.145.073-.218.362-.798 1.233-1.378 2.175-1.378 1.088 0 2.031.798 2.322 1.813v.145c.072.218.072.29.072.436zm-2.756-7.905v-4.497h4.352l1.305 4.497z" fill="#616161"/><path d="m25.166 237.87h-5.076v-6.818c0-.072-.072-.072-.072-.072h-12.478c-.072 0-.072.072-.072.072v6.818h-5.078c-.072 0-.072.073-.072.073v16.682c0 .073.072.073.072.073h7.689c.072 0 .072-.073.072-.073v-4.932h7.253v4.932c0 .073.073.073.073.073h7.688c.073 0 .073-.073.073-.073v-16.682c.072 0 0-.073-.073-.073zm-20.091 9.357v-2.611h2.611v2.61zm2.611 2.756v2.611h-2.611v-2.611zm2.104-2.756v-2.611h2.61v2.61zm3.264-10.735h2.103v-2.756h2.248v8.123h-2.248v-2.61h-2.757v2.756h-2.249v-8.124h2.249v2.756h.653zm4.714 8.124v2.61h-2.611v-2.61zm4.715 0v2.61h-2.611v-2.61zm0 5.367v2.611h-2.611v-2.611z" fill="#616161"/><path d="m17.768 290.674s-1.305-.363-1.305-1.233v-12.621-.145c-.798 0-1.379.072-1.524.072-.072 0-.145.145-.29.29a26.765 26.765 0 0 0 -1.958 2.249c-.073.073-.145.218-.29.29-.073.073-.145.218-.29.29v9.502c0 .87-1.306 1.233-1.306 1.233-.145.073-.218.145-.218.29s.145.218.29.218h6.891c.145 0 .218-.073.29-.218.073-.145-.145-.217-.29-.217z" fill="#616161"/><path d="m24.006 275.224c-.218-.072-.798-.145-1.523-.217-2.176-.29-5.73-.726-6.746-1.233-1.015-.508-3.264-3.917-5.222-7.109-.435-.652-.725-1.16-.943-1.45-.29-.435-.58-.58-.725-.508-.145.073-.218.435.145 1.233.653 1.523 2.901 8.341 2.974 8.776.072.508-1.016 2.612-3.192 6.456-.508.943-.943 1.74-1.088 2.03s-.072.509.145.654c.29.145.653.072.726-.073 0-.072 1.885-2.394 3.554-4.424.072-.145.217-.218.29-.29l.29-.29c.58-.653 1.088-1.234 1.523-1.669l.29-.29.29-.29c.073-.073.073-.073.145-.073.29-.072 2.321-.145 5.295-.217 1.814 0 3.554-.073 3.917-.145.363-.073.508-.29.508-.436-.073-.217-.29-.362-.653-.435z" fill="#616161"/><text fill="#666" transform="translate(88.69 420)"><tspan font-family="Roboto" font-size="12" font-weight="400" x="69.051" y="13">Build &amp; train ML models in the cloud</tspan></text></g></svg>