<?xml version="1.0" standalone="no"?>
<!DOCTYPE svg PUBLIC "-//W3C//DTD SVG 20010904//EN"
 "http://www.w3.org/TR/2001/REC-SVG-20010904/DTD/svg10.dtd">
<svg version="1.0" xmlns="http://www.w3.org/2000/svg"
 width="267.000000pt" height="267.000000pt" viewBox="0 0 267.000000 267.000000"
 preserveAspectRatio="xMidYMid meet">
<metadata>
Created by potrace 1.14, written by Peter Selinger 2001-2017
</metadata>
<g transform="translate(0.000000,267.000000) scale(0.100000,-0.100000)"
fill="#000000" stroke="none">
<path d="M426 2225 c-35 -153 -35 -149 -8 -153 13 -2 25 3 28 13 16 42 47 45
404 45 l340 0 -2 -894 c-3 -863 -4 -895 -22 -915 -11 -12 -27 -21 -38 -21 -11
0 -18 -7 -18 -20 0 -19 7 -20 205 -20 179 0 205 2 205 16 0 8 -13 20 -29 25
-15 6 -33 21 -40 35 -8 18 -11 270 -11 909 l0 885 345 0 344 0 34 -30 c39 -34
67 -39 67 -12 0 9 -12 69 -26 132 l-27 115 -863 0 -863 0 -25 -110z"/>
<path d="M1720 1990 c-186 -9 -170 -6 -170 -27 0 -10 15 -25 33 -33 l32 -15 3
-645 c1 -355 0 -655 -3 -666 -2 -12 -19 -27 -35 -34 -20 -8 -30 -19 -28 -29 3
-13 23 -17 113 -22 313 -18 482 -6 571 39 134 69 220 222 255 457 17 112 17
445 0 535 -44 236 -137 366 -300 420 -78 26 -229 32 -471 20z m415 -240 c65
-60 92 -165 101 -385 7 -163 -7 -361 -32 -460 -20 -79 -57 -141 -96 -161 -37
-19 -140 -30 -192 -20 l-36 7 0 525 0 526 114 -4 c106 -3 116 -5 141 -28z"/>
<path d="M250 1948 c-19 -32 -20 -53 -20 -613 0 -341 -4 -596 -10 -620 -10
-39 -9 -41 38 -85 141 -132 286 -160 647 -125 83 8 153 15 158 15 19 0 4 37
-22 51 -18 11 -30 28 -34 49 -9 42 -9 1218 0 1260 4 21 16 38 34 49 16 9 29
24 29 34 0 16 -12 17 -152 15 l-152 -3 -12 -40 c-9 -29 -13 -193 -13 -595 -1
-532 -2 -556 -21 -587 -37 -62 -146 -69 -202 -13 l-28 28 0 566 c0 553 0 566
20 586 11 11 27 20 35 20 8 0 15 9 15 20 0 19 -7 20 -145 20 l-145 0 -20 -32z"/>
</g>
</svg>
