<?xml version="1.0" standalone="no"?>
<!DOCTYPE svg PUBLIC "-//W3C//DTD SVG 20010904//EN"
 "http://www.w3.org/TR/2001/REC-SVG-20010904/DTD/svg10.dtd">
<svg version="1.0" xmlns="http://www.w3.org/2000/svg"
 width="153.000000pt" height="153.000000pt" viewBox="0 0 153.000000 153.000000"
 preserveAspectRatio="xMidYMid meet">
<metadata>
Created by potrace 1.14, written by Peter Selinger 2001-2017
</metadata>
<g transform="translate(0.000000,153.000000) scale(0.100000,-0.100000)"
fill="#000000" stroke="none">
<path d="M197 1365 c-11 -30 -30 -146 -24 -151 3 -3 18 3 33 15 25 20 38 21
230 21 l204 0 1 -42 c4 -246 0 -1010 -5 -1026 -4 -12 -13 -22 -21 -22 -7 0
-15 -7 -19 -15 -5 -13 13 -15 119 -15 104 0 125 2 125 15 0 8 -6 15 -14 15 -8
0 -18 6 -23 13 -4 6 -8 252 -8 545 l0 532 207 0 c194 0 209 -1 228 -20 11 -11
26 -17 33 -14 12 4 11 18 -5 82 l-19 77 -519 0 c-347 0 -521 -3 -523 -10z"/>
<path d="M1097 1174 c-2 -2 -53 -4 -115 -5 -62 -1 -114 -5 -117 -9 -3 -5 5
-19 18 -32 l22 -23 0 -383 0 -384 -23 -19 c-13 -10 -21 -22 -18 -27 8 -13 318
-15 365 -2 93 25 165 117 191 244 7 34 14 117 15 186 5 262 -50 390 -186 435
-39 13 -145 26 -152 19z m118 -158 c37 -37 57 -122 58 -249 1 -192 -16 -282
-65 -334 -18 -19 -32 -23 -83 -23 l-62 0 0 315 -1 315 65 0 c54 0 68 -4 88
-24z"/>
<path d="M118 1162 c-28 -2 -39 -9 -44 -25 -4 -12 -8 -190 -9 -396 l-1 -373
40 -34 c49 -42 124 -67 201 -68 97 0 259 14 269 24 6 6 0 17 -15 29 l-24 19 0
387 0 387 25 18 c14 10 22 21 18 25 -11 12 -180 7 -192 -5 -7 -7 -11 -116 -11
-360 -1 -322 -2 -350 -19 -369 -35 -39 -107 -29 -124 17 -7 17 -10 152 -10
349 l1 322 24 21 c14 12 23 23 21 25 -5 5 -110 10 -150 7z"/>
</g>
</svg>
