<?xml version="1.0" encoding="UTF-8" standalone="no"?>
<!DOCTYPE svg PUBLIC "-//W3C//DTD SVG 1.1//EN"
 "http://www.w3.org/Graphics/SVG/1.1/DTD/svg11.dtd">
<!-- Generated by graphviz version 2.26.0 (20091210.2329)
 -->
<!-- Title: Taxonomy Pages: 1 -->
<svg width="720pt" height="353pt"
 viewBox="0.00 0.00 720.00 353.21" xmlns="http://www.w3.org/2000/svg" xmlns:xlink="http://www.w3.org/1999/xlink">
<g id="graph1" class="graph" transform="scale(0.590648 0.590648) rotate(0) translate(4 594)">
<title>Taxonomy</title>
<polygon fill="white" stroke="white" points="-4,5 -4,-594 1216,-594 1216,5 -4,5"/>
<!-- start -->
<g id="node1" class="node"><title>start</title>
<a xlink:href="/content/optimization-tree-alphabetical" xlink:title="Optimization" target="_parent">
<polygon fill="none" stroke="black" points="651,-590 563,-590 563,-554 651,-554 651,-590"/>
<text text-anchor="middle" x="607" y="-568.9" font-family="Times Roman,serif" font-size="14.00">Optimization</text>
</a>
</g>
<!-- Uncertainty -->
<g id="node3" class="node"><title>Uncertainty</title>
<a xlink:href="/content/optimization-under-uncertainty" xlink:title="Uncertainty" target="_parent">
<polygon fill="none" stroke="black" points="525,-518 445,-518 445,-482 525,-482 525,-518"/>
<text text-anchor="middle" x="485" y="-496.9" font-family="Times Roman,serif" font-size="14.00">Uncertainty</text>
</a>
</g>
<!-- start&#45;&gt;Uncertainty -->
<g id="edge2" class="edge"><title>start&#45;&gt;Uncertainty</title>
<path fill="none" stroke="black" d="M576.214,-553.831C560.61,-544.622 541.476,-533.33 524.77,-523.471"/>
<polygon fill="black" stroke="black" points="526.167,-520.231 515.776,-518.163 522.609,-526.26 526.167,-520.231"/>
</g>
<!-- Deterministic -->
<g id="node5" class="node"><title>Deterministic</title>
<polygon fill="none" stroke="black" points="652,-518 562,-518 562,-482 652,-482 652,-518"/>
<text text-anchor="middle" x="607" y="-496.9" font-family="Times Roman,serif" font-size="14.00">Deterministic</text>
</g>
<!-- start&#45;&gt;Deterministic -->
<g id="edge4" class="edge"><title>start&#45;&gt;Deterministic</title>
<path fill="none" stroke="black" d="M607,-553.831C607,-546.131 607,-536.974 607,-528.417"/>
<polygon fill="black" stroke="black" points="610.5,-528.413 607,-518.413 603.5,-528.413 610.5,-528.413"/>
</g>
<!-- Multi -->
<g id="node7" class="node"><title>Multi</title>
<a xlink:href="/content/multiobjective-optimization" xlink:title="Multiobjective Optimization" target="_parent">
<polygon fill="none" stroke="black" points="842,-518 670,-518 670,-482 842,-482 842,-518"/>
<text text-anchor="middle" x="756" y="-496.9" font-family="Times Roman,serif" font-size="14.00">Multiobjective Optimization</text>
</a>
</g>
<!-- start&#45;&gt;Multi -->
<g id="edge6" class="edge"><title>start&#45;&gt;Multi</title>
<path fill="none" stroke="black" stroke-dasharray="1,5" d="M644.599,-553.831C664.35,-544.287 688.73,-532.506 709.642,-522.401"/>
<polygon fill="black" stroke="black" points="711.19,-525.54 718.671,-518.038 708.145,-519.238 711.19,-525.54"/>
</g>
<!-- SP -->
<g id="node9" class="node"><title>SP</title>
<a xlink:href="/content/stochastic-programming" xlink:title="Stochastic Programming" target="_parent">
<polygon fill="none" stroke="black" points="402,-446 250,-446 250,-410 402,-410 402,-446"/>
<text text-anchor="middle" x="326" y="-424.9" font-family="Times Roman,serif" font-size="14.00">Stochastic Programming</text>
</a>
</g>
<!-- Uncertainty&#45;&gt;SP -->
<g id="edge8" class="edge"><title>Uncertainty&#45;&gt;SP</title>
<path fill="none" stroke="black" d="M444.878,-481.831C423.707,-472.245 397.552,-460.401 375.17,-450.266"/>
<polygon fill="black" stroke="black" points="376.387,-446.975 365.834,-446.038 373.5,-453.351 376.387,-446.975"/>
</g>
<!-- RO -->
<g id="node11" class="node"><title>RO</title>
<a xlink:href="/content/robust-optimization" xlink:title="Robust Optimization" target="_parent">
<polygon fill="none" stroke="black" points="550,-446 420,-446 420,-410 550,-410 550,-446"/>
<text text-anchor="middle" x="485" y="-424.9" font-family="Times Roman,serif" font-size="14.00">Robust Optimization</text>
</a>
</g>
<!-- Uncertainty&#45;&gt;RO -->
<g id="edge10" class="edge"><title>Uncertainty&#45;&gt;RO</title>
<path fill="none" stroke="black" d="M485,-481.831C485,-474.131 485,-464.974 485,-456.417"/>
<polygon fill="black" stroke="black" points="488.5,-456.413 485,-446.413 481.5,-456.413 488.5,-456.413"/>
</g>
<!-- Continuous -->
<g id="node13" class="node"><title>Continuous</title>
<a xlink:href="/content/continuous-optimization" xlink:title="Continuous" target="_parent">
<polygon fill="none" stroke="black" points="646,-446 568,-446 568,-410 646,-410 646,-446"/>
<text text-anchor="middle" x="607" y="-424.9" font-family="Times Roman,serif" font-size="14.00">Continuous</text>
</a>
</g>
<!-- Deterministic&#45;&gt;Continuous -->
<g id="edge12" class="edge"><title>Deterministic&#45;&gt;Continuous</title>
<path fill="none" stroke="black" d="M607,-481.831C607,-474.131 607,-464.974 607,-456.417"/>
<polygon fill="black" stroke="black" points="610.5,-456.413 607,-446.413 603.5,-456.413 610.5,-456.413"/>
</g>
<!-- Discrete -->
<g id="node15" class="node"><title>Discrete</title>
<a xlink:href="/content/discrete-optimization" xlink:title="Discrete" target="_parent">
<polygon fill="none" stroke="black" points="743,-446 681,-446 681,-410 743,-410 743,-446"/>
<text text-anchor="middle" x="712" y="-424.9" font-family="Times Roman,serif" font-size="14.00">Discrete</text>
</a>
</g>
<!-- Deterministic&#45;&gt;Discrete -->
<g id="edge14" class="edge"><title>Deterministic&#45;&gt;Discrete</title>
<path fill="none" stroke="black" d="M633.496,-481.831C646.677,-472.793 662.785,-461.748 676.971,-452.02"/>
<polygon fill="black" stroke="black" points="679.245,-454.705 685.513,-446.163 675.286,-448.932 679.245,-454.705"/>
</g>
<!-- Unconstrained -->
<g id="node21" class="node"><title>Unconstrained</title>
<a xlink:href="/content/unconstrained-optimization" xlink:title="Unconstrained" target="_parent">
<polygon fill="none" stroke="black" points="359,-369 265,-369 265,-333 359,-333 359,-369"/>
<text text-anchor="middle" x="312" y="-347.9" font-family="Times Roman,serif" font-size="14.00">Unconstrained</text>
</a>
</g>
<!-- Continuous&#45;&gt;Unconstrained -->
<g id="edge20" class="edge"><title>Continuous&#45;&gt;Unconstrained</title>
<path fill="none" stroke="black" d="M567.844,-412.864C564.866,-411.852 561.894,-410.884 559,-410 494.901,-390.409 419.826,-373.279 369.416,-362.597"/>
<polygon fill="black" stroke="black" points="369.866,-359.115 359.36,-360.482 368.425,-365.965 369.866,-359.115"/>
</g>
<!-- Constrained -->
<g id="node23" class="node"><title>Constrained</title>
<a xlink:href="/content/constrained-optimization" xlink:title="Constrained" target="_parent">
<polygon fill="none" stroke="black" points="648,-369 566,-369 566,-333 648,-333 648,-369"/>
<text text-anchor="middle" x="607" y="-347.9" font-family="Times Roman,serif" font-size="14.00">Constrained</text>
</a>
</g>
<!-- Continuous&#45;&gt;Constrained -->
<g id="edge22" class="edge"><title>Continuous&#45;&gt;Constrained</title>
<path fill="none" stroke="black" d="M607,-409.752C607,-400.642 607,-389.417 607,-379.228"/>
<polygon fill="black" stroke="black" points="610.5,-379.117 607,-369.117 603.5,-379.117 610.5,-379.117"/>
</g>
<!-- IP -->
<g id="node17" class="node"><title>IP</title>
<a xlink:href="/content/integer-linear-programming" xlink:title="Integer\nProgramming" target="_parent">
<polygon fill="none" stroke="black" points="758,-374 666,-374 666,-328 758,-328 758,-374"/>
<text text-anchor="middle" x="712" y="-357.4" font-family="Times Roman,serif" font-size="14.00">Integer</text>
<text text-anchor="middle" x="712" y="-338.4" font-family="Times Roman,serif" font-size="14.00">Programming</text>
</a>
</g>
<!-- Discrete&#45;&gt;IP -->
<g id="edge16" class="edge"><title>Discrete&#45;&gt;IP</title>
<path fill="none" stroke="black" d="M712,-409.752C712,-402.081 712,-392.909 712,-384.12"/>
<polygon fill="black" stroke="black" points="715.5,-384.089 712,-374.089 708.5,-384.09 715.5,-384.089"/>
</g>
<!-- CO -->
<g id="node19" class="node"><title>CO</title>
<a xlink:href="/content/combinatorial-optimization" xlink:title="Combinatorial\nOptimization" target="_parent">
<polygon fill="none" stroke="black" points="870,-374 776,-374 776,-328 870,-328 870,-374"/>
<text text-anchor="middle" x="823" y="-357.4" font-family="Times Roman,serif" font-size="14.00">Combinatorial</text>
<text text-anchor="middle" x="823" y="-338.4" font-family="Times Roman,serif" font-size="14.00">Optimization</text>
</a>
</g>
<!-- Discrete&#45;&gt;CO -->
<g id="edge18" class="edge"><title>Discrete&#45;&gt;CO</title>
<path fill="none" stroke="black" d="M738.025,-409.947C750.88,-401.029 766.709,-390.049 781.206,-379.992"/>
<polygon fill="black" stroke="black" points="783.334,-382.776 789.555,-374.2 779.344,-377.024 783.334,-382.776"/>
</g>
<!-- NLS -->
<g id="node25" class="node"><title>NLS</title>
<a xlink:href="/content/nonlinear-least-squares" xlink:title="Nonlinear\nLeast Squares" target="_parent">
<polygon fill="none" stroke="black" points="92,-292 4.26326e-14,-292 0,-246 92,-246 92,-292"/>
<text text-anchor="middle" x="46" y="-275.4" font-family="Times Roman,serif" font-size="14.00">Nonlinear</text>
<text text-anchor="middle" x="46" y="-256.4" font-family="Times Roman,serif" font-size="14.00">Least Squares</text>
</a>
</g>
<!-- Unconstrained&#45;&gt;NLS -->
<g id="edge24" class="edge"><title>Unconstrained&#45;&gt;NLS</title>
<path fill="none" stroke="black" d="M264.974,-339.625C224.061,-329.333 163.093,-313.046 101.877,-292.139"/>
<polygon fill="black" stroke="black" points="102.648,-288.702 92.0535,-288.744 100.362,-295.318 102.648,-288.702"/>
</g>
<!-- NE -->
<g id="node27" class="node"><title>NE</title>
<a xlink:href="/content/nonlinear-equations" xlink:title="Nonlinear Equations" target="_parent">
<polygon fill="none" stroke="black" points="238,-287 110,-287 110,-251 238,-251 238,-287"/>
<text text-anchor="middle" x="174" y="-265.9" font-family="Times Roman,serif" font-size="14.00">Nonlinear Equations</text>
</a>
</g>
<!-- Unconstrained&#45;&gt;NE -->
<g id="edge26" class="edge"><title>Unconstrained&#45;&gt;NE</title>
<path fill="none" stroke="black" d="M281.373,-332.802C261.274,-320.858 234.804,-305.13 213.176,-292.278"/>
<polygon fill="black" stroke="black" points="214.926,-289.247 204.541,-287.148 211.35,-295.265 214.926,-289.247"/>
</g>
<!-- NDO -->
<g id="node29" class="node"><title>NDO</title>
<a xlink:href="/content/nondifferentiable-optimization" xlink:title="Nondifferentiable\nOptimization" target="_parent">
<polygon fill="none" stroke="black" points="368,-292 256,-292 256,-246 368,-246 368,-292"/>
<text text-anchor="middle" x="312" y="-275.4" font-family="Times Roman,serif" font-size="14.00">Nondifferentiable</text>
<text text-anchor="middle" x="312" y="-256.4" font-family="Times Roman,serif" font-size="14.00">Optimization</text>
</a>
</g>
<!-- Unconstrained&#45;&gt;NDO -->
<g id="edge28" class="edge"><title>Unconstrained&#45;&gt;NDO</title>
<path fill="none" stroke="black" d="M312,-332.802C312,-323.813 312,-312.681 312,-302.244"/>
<polygon fill="black" stroke="black" points="315.5,-302.145 312,-292.145 308.5,-302.145 315.5,-302.145"/>
</g>
<!-- GO -->
<g id="node31" class="node"><title>GO</title>
<a xlink:href="/content/global-optimization" xlink:title="Global Optimization" target="_parent">
<polygon fill="none" stroke="black" points="514,-287 386,-287 386,-251 514,-251 514,-287"/>
<text text-anchor="middle" x="450" y="-265.9" font-family="Times Roman,serif" font-size="14.00">Global Optimization</text>
</a>
</g>
<!-- Unconstrained&#45;&gt;GO -->
<g id="edge30" class="edge"><title>Unconstrained&#45;&gt;GO</title>
<path fill="none" stroke="black" d="M342.627,-332.802C362.726,-320.858 389.196,-305.13 410.824,-292.278"/>
<polygon fill="black" stroke="black" points="412.65,-295.265 419.459,-287.148 409.074,-289.247 412.65,-295.265"/>
</g>
<!-- Constrained&#45;&gt;NDO -->
<g id="edge36" class="edge"><title>Constrained&#45;&gt;NDO</title>
<path fill="none" stroke="black" d="M565.979,-341.642C521.724,-331.289 449.046,-313.543 377.847,-292.158"/>
<polygon fill="black" stroke="black" points="378.854,-288.806 368.269,-289.255 376.824,-295.505 378.854,-288.806"/>
</g>
<!-- Constrained&#45;&gt;GO -->
<g id="edge38" class="edge"><title>Constrained&#45;&gt;GO</title>
<path fill="none" stroke="black" d="M572.157,-332.802C549.006,-320.71 518.428,-304.74 493.657,-291.802"/>
<polygon fill="black" stroke="black" points="494.96,-288.534 484.476,-287.006 491.719,-294.738 494.96,-288.534"/>
</g>
<!-- NLP -->
<g id="node33" class="node"><title>NLP</title>
<a xlink:href="/content/nonlinear-programming" xlink:title="Nonlinear Programming" target="_parent">
<polygon fill="none" stroke="black" points="682,-287 532,-287 532,-251 682,-251 682,-287"/>
<text text-anchor="middle" x="607" y="-265.9" font-family="Times Roman,serif" font-size="14.00">Nonlinear Programming</text>
</a>
</g>
<!-- Constrained&#45;&gt;NLP -->
<g id="edge32" class="edge"><title>Constrained&#45;&gt;NLP</title>
<path fill="none" stroke="black" d="M607,-332.802C607,-322.398 607,-309.122 607,-297.377"/>
<polygon fill="black" stroke="black" points="610.5,-297.148 607,-287.148 603.5,-297.148 610.5,-297.148"/>
</g>
<!-- NetProg -->
<g id="node35" class="node"><title>NetProg</title>
<polygon fill="none" stroke="black" points="840,-287 700,-287 700,-251 840,-251 840,-287"/>
<text text-anchor="middle" x="770" y="-265.9" font-family="Times Roman,serif" font-size="14.00">Network Optimization</text>
</g>
<!-- Constrained&#45;&gt;NetProg -->
<g id="edge34" class="edge"><title>Constrained&#45;&gt;NetProg</title>
<path fill="none" stroke="black" d="M643.175,-332.802C667.316,-320.657 699.236,-304.599 725.014,-291.631"/>
<polygon fill="black" stroke="black" points="726.847,-294.627 734.207,-287.006 723.701,-288.374 726.847,-294.627"/>
</g>
<!-- BCO -->
<g id="node39" class="node"><title>BCO</title>
<a xlink:href="/content/bound-constrained-optimization" xlink:title="Bound Constrained" target="_parent">
<polygon fill="none" stroke="black" points="980,-287 858,-287 858,-251 980,-251 980,-287"/>
<text text-anchor="middle" x="919" y="-265.9" font-family="Times Roman,serif" font-size="14.00">Bound Constrained</text>
</a>
</g>
<!-- Constrained&#45;&gt;BCO -->
<g id="edge40" class="edge"><title>Constrained&#45;&gt;BCO</title>
<path fill="none" stroke="black" d="M643.455,-332.991C647.954,-331.14 652.539,-329.42 657,-328 739.728,-301.66 764.909,-313.598 849,-292 851.583,-291.337 854.209,-290.629 856.854,-289.888"/>
<polygon fill="black" stroke="black" points="857.853,-293.243 866.474,-287.084 855.894,-286.523 857.853,-293.243"/>
</g>
<!-- LCO -->
<g id="node41" class="node"><title>LCO</title>
<polygon fill="none" stroke="black" points="1128,-287 998,-287 998,-251 1128,-251 1128,-287"/>
<text text-anchor="middle" x="1063" y="-265.9" font-family="Times Roman,serif" font-size="14.00">Linearly Constrained</text>
</g>
<!-- Constrained&#45;&gt;LCO -->
<g id="edge42" class="edge"><title>Constrained&#45;&gt;LCO</title>
<path fill="none" stroke="black" d="M642.526,-332.982C647.304,-331.058 652.211,-329.323 657,-328 800.06,-288.472 843.678,-322.167 989,-292 992.396,-291.295 995.859,-290.499 999.34,-289.637"/>
<polygon fill="black" stroke="black" points="1000.38,-292.983 1009.16,-287.055 998.599,-286.213 1000.38,-292.983"/>
</g>
<!-- MINLP -->
<g id="node49" class="node"><title>MINLP</title>
<a xlink:href="/content/mixed-integer-nonlinear-programming" xlink:title="Mixed Integer\nNonlinear Programming" target="_parent">
<polygon fill="none" stroke="black" points="863,-210 713,-210 713,-164 863,-164 863,-210"/>
<text text-anchor="middle" x="788" y="-193.4" font-family="Times Roman,serif" font-size="14.00">Mixed Integer</text>
<text text-anchor="middle" x="788" y="-174.4" font-family="Times Roman,serif" font-size="14.00">Nonlinear Programming</text>
</a>
</g>
<!-- NLP&#45;&gt;MINLP -->
<g id="edge50" class="edge"><title>NLP&#45;&gt;MINLP</title>
<path fill="none" stroke="black" d="M647.17,-250.802C670.833,-240.081 701.229,-226.311 727.721,-214.309"/>
<polygon fill="black" stroke="black" points="729.247,-217.46 736.911,-210.145 726.358,-211.084 729.247,-217.46"/>
</g>
<!-- SDP -->
<g id="node51" class="node"><title>SDP</title>
<a xlink:href="/content/semidefinite-programming" xlink:title="Semidefinite Programming" target="_parent">
<polygon fill="none" stroke="black" points="391,-205 225,-205 225,-169 391,-169 391,-205"/>
<text text-anchor="middle" x="308" y="-183.9" font-family="Times Roman,serif" font-size="14.00">Semidefinite Programming</text>
</a>
</g>
<!-- NLP&#45;&gt;SDP -->
<g id="edge52" class="edge"><title>NLP&#45;&gt;SDP</title>
<path fill="none" stroke="black" d="M541.013,-250.903C494.515,-238.151 432.148,-221.047 383.637,-207.743"/>
<polygon fill="black" stroke="black" points="384.388,-204.32 373.818,-205.051 382.537,-211.071 384.388,-204.32"/>
</g>
<!-- SIP -->
<g id="node53" class="node"><title>SIP</title>
<a xlink:href="/content/semi-infinite-programming" xlink:title="Semiinfinite\nProgramming" target="_parent">
<polygon fill="none" stroke="black" points="501,-210 409,-210 409,-164 501,-164 501,-210"/>
<text text-anchor="middle" x="455" y="-193.4" font-family="Times Roman,serif" font-size="14.00">Semiinfinite</text>
<text text-anchor="middle" x="455" y="-174.4" font-family="Times Roman,serif" font-size="14.00">Programming</text>
</a>
</g>
<!-- NLP&#45;&gt;SIP -->
<g id="edge54" class="edge"><title>NLP&#45;&gt;SIP</title>
<path fill="none" stroke="black" d="M573.266,-250.802C553.741,-240.268 528.759,-226.791 506.79,-214.939"/>
<polygon fill="black" stroke="black" points="508.366,-211.813 497.903,-210.145 505.042,-217.973 508.366,-211.813"/>
</g>
<!-- MPEC -->
<g id="node55" class="node"><title>MPEC</title>
<a xlink:href="/content/mathematical-programs-equilibrium-constraints" xlink:title="Mathematical Programs\nwith Equilibrium Constraints" target="_parent">
<polygon fill="none" stroke="black" points="695,-210 519,-210 519,-164 695,-164 695,-210"/>
<text text-anchor="middle" x="607" y="-193.4" font-family="Times Roman,serif" font-size="14.00">Mathematical Programs</text>
<text text-anchor="middle" x="607" y="-174.4" font-family="Times Roman,serif" font-size="14.00">with Equilibrium Constraints</text>
</a>
</g>
<!-- NLP&#45;&gt;MPEC -->
<g id="edge56" class="edge"><title>NLP&#45;&gt;MPEC</title>
<path fill="none" stroke="black" d="M607,-250.802C607,-241.813 607,-230.681 607,-220.244"/>
<polygon fill="black" stroke="black" points="610.5,-220.145 607,-210.145 603.5,-220.145 610.5,-220.145"/>
</g>
<!-- DFO -->
<g id="node43" class="node"><title>DFO</title>
<a xlink:href="/content/derivative-free-optimization" xlink:title="Derivative&#45;Free\nOptimization" target="_parent">
<polygon fill="none" stroke="black" points="983,-210 881,-210 881,-164 983,-164 983,-210"/>
<text text-anchor="middle" x="932" y="-193.4" font-family="Times Roman,serif" font-size="14.00">Derivative&#45;Free</text>
<text text-anchor="middle" x="932" y="-174.4" font-family="Times Roman,serif" font-size="14.00">Optimization</text>
</a>
</g>
<!-- BCO&#45;&gt;DFO -->
<g id="edge44" class="edge"><title>BCO&#45;&gt;DFO</title>
<path fill="none" stroke="black" d="M921.885,-250.802C923.31,-241.813 925.075,-230.681 926.73,-220.244"/>
<polygon fill="black" stroke="black" points="930.222,-220.57 928.331,-210.145 923.308,-219.474 930.222,-220.57"/>
</g>
<!-- LP -->
<g id="node45" class="node"><title>LP</title>
<a xlink:href="/content/linear-programming" xlink:title="Linear\nProgramming" target="_parent">
<polygon fill="none" stroke="black" points="1211,-210 1119,-210 1119,-164 1211,-164 1211,-210"/>
<text text-anchor="middle" x="1165" y="-193.4" font-family="Times Roman,serif" font-size="14.00">Linear</text>
<text text-anchor="middle" x="1165" y="-174.4" font-family="Times Roman,serif" font-size="14.00">Programming</text>
</a>
</g>
<!-- LCO&#45;&gt;LP -->
<g id="edge46" class="edge"><title>LCO&#45;&gt;LP</title>
<path fill="none" stroke="black" d="M1085.64,-250.802C1098.1,-240.783 1113.87,-228.102 1128.07,-216.689"/>
<polygon fill="black" stroke="black" points="1130.61,-219.139 1136.21,-210.145 1126.22,-213.683 1130.61,-219.139"/>
</g>
<!-- QP -->
<g id="node47" class="node"><title>QP</title>
<a xlink:href="/content/quadratic-programming" xlink:title="Quadratic\nProgramming" target="_parent">
<polygon fill="none" stroke="black" points="1101,-210 1009,-210 1009,-164 1101,-164 1101,-210"/>
<text text-anchor="middle" x="1055" y="-193.4" font-family="Times Roman,serif" font-size="14.00">Quadratic</text>
<text text-anchor="middle" x="1055" y="-174.4" font-family="Times Roman,serif" font-size="14.00">Programming</text>
</a>
</g>
<!-- LCO&#45;&gt;QP -->
<g id="edge48" class="edge"><title>LCO&#45;&gt;QP</title>
<path fill="none" stroke="black" d="M1061.22,-250.802C1060.35,-241.813 1059.26,-230.681 1058.24,-220.244"/>
<polygon fill="black" stroke="black" points="1061.71,-219.758 1057.26,-210.145 1054.75,-220.438 1061.71,-219.758"/>
</g>
<!-- SOCP -->
<g id="node57" class="node"><title>SOCP</title>
<a xlink:href="/content/second-order-cone-programming" xlink:title="Second&#45;Order\nCone Programming" target="_parent">
<polygon fill="none" stroke="black" points="370,-128 246,-128 246,-82 370,-82 370,-128"/>
<text text-anchor="middle" x="308" y="-111.4" font-family="Times Roman,serif" font-size="14.00">Second&#45;Order</text>
<text text-anchor="middle" x="308" y="-92.4" font-family="Times Roman,serif" font-size="14.00">Cone Programming</text>
</a>
</g>
<!-- SDP&#45;&gt;SOCP -->
<g id="edge58" class="edge"><title>SDP&#45;&gt;SOCP</title>
<path fill="none" stroke="black" d="M308,-168.802C308,-159.813 308,-148.681 308,-138.244"/>
<polygon fill="black" stroke="black" points="311.5,-138.145 308,-128.145 304.5,-138.145 311.5,-138.145"/>
</g>
<!-- CP -->
<g id="node61" class="node"><title>CP</title>
<a xlink:href="/content/complementarity-problems" xlink:title="Complementarity\nProblems" target="_parent">
<polygon fill="none" stroke="black" points="663,-128 551,-128 551,-82 663,-82 663,-128"/>
<text text-anchor="middle" x="607" y="-111.4" font-family="Times Roman,serif" font-size="14.00">Complementarity</text>
<text text-anchor="middle" x="607" y="-92.4" font-family="Times Roman,serif" font-size="14.00">Problems</text>
</a>
</g>
<!-- MPEC&#45;&gt;CP -->
<g id="edge62" class="edge"><title>MPEC&#45;&gt;CP</title>
<path fill="none" stroke="black" d="M607,-163.721C607,-155.777 607,-146.734 607,-138.164"/>
<polygon fill="black" stroke="black" points="610.5,-138.053 607,-128.053 603.5,-138.053 610.5,-138.053"/>
</g>
<!-- QCQP -->
<g id="node59" class="node"><title>QCQP</title>
<a xlink:href="/content/quadratic-constrained-quadratic-programming" xlink:title="Quadratically&#45;Constrained\nQuadratic Programming" target="_parent">
<polygon fill="none" stroke="black" points="388,-46 228,-46 228,-2.4869e-14 388,-1.06581e-14 388,-46"/>
<text text-anchor="middle" x="308" y="-29.4" font-family="Times Roman,serif" font-size="14.00">Quadratically&#45;Constrained</text>
<text text-anchor="middle" x="308" y="-10.4" font-family="Times Roman,serif" font-size="14.00">Quadratic Programming</text>
</a>
</g>
<!-- SOCP&#45;&gt;QCQP -->
<g id="edge60" class="edge"><title>SOCP&#45;&gt;QCQP</title>
<path fill="none" stroke="black" d="M308,-81.7214C308,-73.7771 308,-64.7336 308,-56.1645"/>
<polygon fill="black" stroke="black" points="311.5,-56.0529 308,-46.053 304.5,-56.053 311.5,-56.0529"/>
</g>
</g>
</svg>
